<?xml version="1.0" encoding="UTF-8"?>
<svg width="752pt" height="752pt" version="1.1" viewBox="0 0 752 752" xmlns="http://www.w3.org/2000/svg">
 <g>
  <path d="m549.02 386.88c-18.434-36.434-39.648-70.137-50.504-86.777 12.402-3.6562 23.297-7.832 32.672-12.414l-7.1797 33.074c-1.4219 6.5352 2.7266 12.984 9.2617 14.402 0.86719 0.19531 1.7344 0.28125 2.582 0.28125 5.5781 0 10.586-3.8711 11.82-9.5391l12.598-58.043c9.0547-9.1445 13.668-18.91 13.668-28.656-0.003906-37.93-69.375-76.316-201.94-76.316-132.59 0-201.95 38.387-201.95 76.316 0 9.6641 4.5312 19.359 13.445 28.449 0.027344 0.64453 0.085937 1.2969 0.22266 1.957l59.188 270.9c0.48828 2.1797 1.5547 4.1953 3.1055 5.8047 19.562 20.32 66.66 42.156 124.43 42.785 0.19922 0.011719 0.39062 0.011719 0.58594 0.011719h1.9414c0.19531 0 0.38281 0 0.56641-0.015625 57.773-0.625 104.88-22.461 124.43-42.785 1.5625-1.6133 2.6367-3.6289 3.1055-5.8242l6.2969-28.977c11.625 12.059 22.629 16.566 30.625 18.07 2.4609 0.46484 4.9219 0.6875 7.332 0.6875 7.4062 0 14.477-2.1484 20.422-6.3125 26.164-18.312 20.699-63.141-16.719-137.08zm-307.38-181.6c34.637-11.715 80.93-18.168 130.36-18.168 108.48 0 177.73 30.859 177.73 52.098 0 3.6719-2.4609 8.4336-8.2344 13.629-0.30469 0.25-0.61719 0.49219-0.89844 0.77344-7.3438 6.3164-19.539 13.207-38.238 19.531-34.637 11.727-80.93 18.176-130.35 18.176-108.5 0-177.73-30.863-177.73-52.102-0.007813-8.2695 12.395-22.117 47.363-33.938zm310.22 298.84c-2.5664 1.793-5.7305 2.3594-9.3906 1.668-5.0156-0.94141-15.18-5.1484-26.867-22.68-0.48828-0.73047-1.043-1.3828-1.6445-1.9648l13.332-61.398c1.4297-6.5352-2.7188-12.98-9.2539-14.402-6.5508-1.4297-12.984 2.7266-14.402 9.2617l-25.445 117.16c-15.164 13.59-54.621 32.891-106.2 33.133-51.586-0.24219-91.047-19.539-106.21-33.141l-53.367-244.26c33.699 16.566 87.195 28.023 159.58 28.023 39.547 0 73.426-3.4336 101.56-9.2383 71.809 105.88 96.664 184.98 78.305 197.83z"/>
  <path d="m286.3 395.31c0.42969 0.046875 0.84766 0.0625 1.2656 0.0625 2.9219 0 5.7578-1.0547 7.9805-2.9883l38.754-33.902c5.0312-4.4062 5.5352-12.059 1.1367-17.09-4.4141-5.0234-12.059-5.5352-17.09-1.1367l-28.914 25.309-6.6992-8.9219c-4.0117-5.3555-11.598-6.4375-16.953-2.4297-5.3438 4.0117-6.4297 11.598-2.4141 16.953l14.523 19.371c2.0117 2.6914 5.0664 4.418 8.4102 4.7734z"/>
  <path d="m291.16 463.12c0.42188 0.042968 0.83984 0.070312 1.2539 0.070312 2.9258 0 5.7578-1.0625 7.9805-2.9961l38.754-33.91c5.0312-4.3984 5.5352-12.047 1.1367-17.086-4.4062-5.0312-12.059-5.5391-17.09-1.1367l-28.914 25.309-6.6992-8.9258c-4.0117-5.3477-11.598-6.4375-16.949-2.4297-5.3477 4.0156-6.4375 11.609-2.4219 16.953l14.523 19.375c2.0195 2.6953 5.0703 4.4258 8.4258 4.7773z"/>
  <path d="m332.88 471.03-28.922 25.297-6.6953-8.9258c-4.0156-5.3555-11.609-6.4375-16.953-2.4219-5.3477 4.0156-6.4297 11.609-2.4219 16.949l14.523 19.383c2.0273 2.6914 5.0781 4.4297 8.4336 4.7734 0.41797 0.042969 0.83203 0.070313 1.2539 0.070313 2.9219 0 5.7578-1.0547 7.9688-2.9961l38.754-33.91c5.0352-4.3984 5.5352-12.047 1.1367-17.078-4.4023-5.0391-12.047-5.5508-17.078-1.1406z"/>
  <path d="m442.55 415.6c-35.582 15.566-67.219 8.832-67.812 8.8359-6.6875 0.003906-12.102 5.4258-12.102 12.113s5.4258 12.102 12.113 12.102c1.4805 0 36.906 6.9102 77.5-10.855 6.1328-2.6836 8.9219-9.8203 6.2422-15.949-2.6758-6.1328-9.8203-8.9219-15.941-6.2461z"/>
  <path d="m447.39 353.84c-35.801 15.668-72.293 8.8359-72.652 8.8359-6.6875 0.015624-12.102 5.4258-12.102 12.113s5.4258 12.105 12.113 12.105c1.6875 0 41.746 6.9062 82.348-10.863 6.1328-2.6836 8.9219-9.8203 6.2422-15.949-2.6797-6.1289-9.8203-8.9297-15.949-6.2422z"/>
  <path d="m437.7 481.14c-35.449 15.512-62.438 8.832-62.977 8.8359-6.6719 0.015626-12.086 5.4258-12.086 12.105 0 6.6953 5.4258 12.105 12.113 12.105 1.2891 0 32.059 6.9102 72.66-10.855 6.125-2.6836 8.9219-9.8203 6.2422-15.949-2.6836-6.1289-9.8203-8.918-15.953-6.2422z"/>
 </g>
</svg>
